<svg xmlns="http://www.w3.org/2000/svg" width="40" height="40" viewBox="0 0 10.583333 10.583334"><circle cx="5.2916665" cy="5.2916665" r="5.291666" style="fill:#000;stroke:#000;stroke-width:0;stroke-miterlimit:4;stroke-dasharray:none"/><path fill="#96f" d="M5.189 8.656c-1.402 0-2.543-1.125-2.543-2.508 0-1.615 2.26-4.676 2.356-4.806a.23.23 0 0 1 .185-.094c.081 0 .142.034.186.091.097.128 2.382 3.135 2.382 4.81 0 1.382-1.152 2.507-2.566 2.507m.002-6.781c-.54.766-2.081 3.061-2.081 4.273 0 1.127.933 2.044 2.079 2.044 1.158 0 2.101-.917 2.101-2.044 0-1.257-1.553-3.517-2.099-4.273" style="stroke-width:.148165"/></svg>